<svg xmlns="http://www.w3.org/2000/svg" width="39" height="39" viewBox="0 0 39 39"><defs><style>.cls-1{fill:#ececec;fill-rule:evenodd}</style></defs><path id="Coffee_icon_divider" data-name="Coffee icon divider" class="cls-1" d="M668.781 1055.56h-29.25a1.22 1.22 0 0 0 0 2.44h29.25a1.22 1.22 0 0 0 0-2.44zm0-24.37h-35.343a2.434 2.434 0 0 0-2.438 2.43v4.88a7.309 7.309 0 0 0 7.312 7.31h2.438v-.11a15.836 15.836 0 0 0 29.25-8.42v-4.87a1.215 1.215 0 0 0-1.219-1.22zm-30.469 12.18a4.872 4.872 0 0 1-4.874-4.87v-3.66a1.221 1.221 0 0 1 1.218-1.22h3.656v3.66a15.742 15.742 0 0 0 1.219 6.09h-1.219zm29.251-6.09a13.407 13.407 0 1 1-26.813 0v-3.66h26.813v3.66zm-13.407-8.53a1.221 1.221 0 0 0 1.219-1.22v-7.31a1.219 1.219 0 1 0-2.438 0v7.31a1.222 1.222 0 0 0 1.219 1.22zm-7.312 0a1.221 1.221 0 0 0 1.218-1.22v-4.87a1.219 1.219 0 1 0-2.437 0v4.87a1.221 1.221 0 0 0 1.219 1.22zm14.625 0a1.221 1.221 0 0 0 1.218-1.22v-2.44a1.219 1.219 0 0 0-2.437 0v2.44a1.221 1.221 0 0 0 1.219 1.22z" transform="translate(-631 -1019)"/></svg>